<?xml version="1.0" encoding="iso-8859-1"?>
<!-- Generator: Adobe Illustrator 17.1.0, SVG Export Plug-In . SVG Version: 6.00 Build 0)  -->
<!DOCTYPE svg PUBLIC "-//W3C//DTD SVG 1.1//EN" "http://www.w3.org/Graphics/SVG/1.1/DTD/svg11.dtd">
<svg version="1.1" id="Capa_1" xmlns="http://www.w3.org/2000/svg" xmlns:xlink="http://www.w3.org/1999/xlink" x="0px" y="0px"
	 viewBox="0 0 202.839 202.839" style="enable-background:new 0 0 202.839 202.839;" xml:space="preserve">
<path d="M185.502,31.815H17.336C7.776,31.815,0,39.592,0,49.152v104.536c0,9.56,7.776,17.336,17.336,17.336h168.166
	c9.56,0,17.337-7.777,17.337-17.336V49.152C202.839,39.592,195.062,31.815,185.502,31.815z M186.759,147.492
	c2.227,1.634,2.707,4.763,1.073,6.989c-0.979,1.335-2.497,2.042-4.035,2.042c-1.027,0-2.063-0.315-2.954-0.969l-65.51-48.072
	l-10.962,8.002c-0.878,0.641-1.913,0.961-2.948,0.961c-1.031,0-2.063-0.318-2.938-0.955l-11.029-8.013l-65.271,47.897
	c-0.892,0.654-1.927,0.969-2.954,0.969c-1.538,0-3.056-0.708-4.035-2.042c-1.634-2.226-1.153-5.355,1.073-6.989l62.694-46.005
	L16.287,55.776c-2.234-1.623-2.729-4.75-1.106-6.984c1.623-2.233,4.75-2.728,6.983-1.106l79.252,57.576l79.437-57.984
	c2.23-1.628,5.358-1.14,6.986,1.091c1.629,2.23,1.141,5.358-1.09,6.986l-62.942,45.943L186.759,147.492z"/>
<g>
</g>
<g>
</g>
<g>
</g>
<g>
</g>
<g>
</g>
<g>
</g>
<g>
</g>
<g>
</g>
<g>
</g>
<g>
</g>
<g>
</g>
<g>
</g>
<g>
</g>
<g>
</g>
<g>
</g>
</svg>
